<svg width="32" height="32" viewBox="0 0 32 32" fill="none" xmlns="http://www.w3.org/2000/svg">
<path d="M19 12.5H13C12.6022 12.5 12.2206 12.658 11.9393 12.9393C11.658 13.2206 11.5 13.6022 11.5 14V15.5H8.5C7.17392 15.5 5.90215 16.0268 4.96447 16.9645C4.02678 17.9021 3.5 19.1739 3.5 20.5C3.5 23.04 5.435 25.5 8.795 25.5L8.395 25.895C8.32449 25.9649 8.27639 26.0543 8.25686 26.1517C8.23732 26.249 8.24723 26.35 8.28531 26.4417C8.3234 26.5335 8.38793 26.6118 8.47069 26.6667C8.55345 26.7216 8.65069 26.7506 8.75 26.75C9.03 26.75 9.02 26.685 10.355 25.355C10.4244 25.2847 10.4714 25.1954 10.4901 25.0984C10.5088 25.0014 10.4983 24.9011 10.46 24.81C10.41 24.68 10.46 24.75 9.105 23.395C9.05838 23.3484 9.00304 23.3114 8.94212 23.2862C8.88121 23.2609 8.81593 23.248 8.75 23.248C8.68407 23.248 8.61879 23.2609 8.55788 23.2862C8.49696 23.3114 8.44162 23.3484 8.395 23.395C8.34838 23.4416 8.3114 23.497 8.28617 23.5579C8.26094 23.6188 8.24795 23.6841 8.24795 23.75C8.24795 23.8159 8.26094 23.8812 8.28617 23.9421C8.3114 24.003 8.34838 24.0584 8.395 24.105L8.795 24.5C6.045 24.5 4.5 22.55 4.5 20.5C4.5 19.4391 4.92143 18.4217 5.67157 17.6716C6.42172 16.9214 7.43913 16.5 8.5 16.5H11.5V18C11.5 18.3978 11.658 18.7794 11.9393 19.0607C12.2206 19.342 12.6022 19.5 13 19.5H19C19.3978 19.5 19.7794 19.342 20.0607 19.0607C20.342 18.7794 20.5 18.3978 20.5 18V14C20.5 13.6022 20.342 13.2206 20.0607 12.9393C19.7794 12.658 19.3978 12.5 19 12.5ZM19.5 18C19.5 18.1326 19.4473 18.2598 19.3536 18.3536C19.2598 18.4473 19.1326 18.5 19 18.5H13C12.8674 18.5 12.7402 18.4473 12.6464 18.3536C12.5527 18.2598 12.5 18.1326 12.5 18V14C12.5 13.8674 12.5527 13.7402 12.6464 13.6464C12.7402 13.5527 12.8674 13.5 13 13.5H19C19.1326 13.5 19.2598 13.5527 19.3536 13.6464C19.4473 13.7402 19.5 13.8674 19.5 14V18Z" fill="#096C9B"/>
<path d="M19 21.5H13C12.6022 21.5 12.2206 21.658 11.9393 21.9393C11.658 22.2206 11.5 22.6022 11.5 23V27C11.5 27.3978 11.658 27.7794 11.9393 28.0607C12.2206 28.342 12.6022 28.5 13 28.5H19C19.3978 28.5 19.7794 28.342 20.0607 28.0607C20.342 27.7794 20.5 27.3978 20.5 27V23C20.5 22.6022 20.342 22.2206 20.0607 21.9393C19.7794 21.658 19.3978 21.5 19 21.5ZM19.5 27C19.5 27.1326 19.4473 27.2598 19.3536 27.3536C19.2598 27.4473 19.1326 27.5 19 27.5H13C12.8674 27.5 12.7402 27.4473 12.6464 27.3536C12.5527 27.2598 12.5 27.1326 12.5 27V23C12.5 22.8674 12.5527 22.7402 12.6464 22.6464C12.7402 22.5527 12.8674 22.5 13 22.5H19C19.1326 22.5 19.2598 22.5527 19.3536 22.6464C19.4473 22.7402 19.5 22.8674 19.5 23V27Z" fill="#096C9B"/>
<path d="M18 5.5H16C15.8674 5.5 15.7402 5.55268 15.6464 5.64645C15.5527 5.74021 15.5 5.86739 15.5 6C15.5 6.13261 15.5527 6.25979 15.6464 6.35355C15.7402 6.44732 15.8674 6.5 16 6.5H18C18.1326 6.5 18.2598 6.44732 18.3536 6.35355C18.4473 6.25979 18.5 6.13261 18.5 6C18.5 5.86739 18.4473 5.74021 18.3536 5.64645C18.2598 5.55268 18.1326 5.5 18 5.5Z" fill="#096C9B"/>
<path d="M14 6.5C14.1326 6.5 14.2598 6.44732 14.3536 6.35355C14.4473 6.25979 14.5 6.13261 14.5 6C14.5 5.86739 14.4473 5.74021 14.3536 5.64645C14.2598 5.55268 14.1326 5.5 14 5.5C13.8674 5.5 13.7402 5.55268 13.6464 5.64645C13.5527 5.74021 13.5 5.86739 13.5 6C13.5 6.13261 13.5527 6.25979 13.6464 6.35355C13.7402 6.44732 13.8674 6.5 14 6.5Z" fill="#096C9B"/>
<path d="M18 14.5H16C15.8674 14.5 15.7402 14.5527 15.6464 14.6464C15.5527 14.7402 15.5 14.8674 15.5 15C15.5 15.1326 15.5527 15.2598 15.6464 15.3536C15.7402 15.4473 15.8674 15.5 16 15.5H18C18.1326 15.5 18.2598 15.4473 18.3536 15.3536C18.4473 15.2598 18.5 15.1326 18.5 15C18.5 14.8674 18.4473 14.7402 18.3536 14.6464C18.2598 14.5527 18.1326 14.5 18 14.5Z" fill="#096C9B"/>
<path d="M14 15.5C14.1326 15.5 14.2598 15.4473 14.3536 15.3536C14.4473 15.2598 14.5 15.1326 14.5 15C14.5 14.8674 14.4473 14.7402 14.3536 14.6464C14.2598 14.5527 14.1326 14.5 14 14.5C13.8674 14.5 13.7402 14.5527 13.6464 14.6464C13.5527 14.7402 13.5 14.8674 13.5 15C13.5 15.1326 13.5527 15.2598 13.6464 15.3536C13.7402 15.4473 13.8674 15.5 14 15.5Z" fill="#096C9B"/>
<path d="M17.3951 23.5001L15.5001 25.4201L14.6051 24.5001C14.5585 24.4535 14.5031 24.4165 14.4422 24.3912C14.3813 24.366 14.316 24.353 14.2501 24.353C14.1842 24.353 14.1189 24.366 14.058 24.3912C13.9971 24.4165 13.9417 24.4535 13.8951 24.5001C13.8485 24.5467 13.8115 24.602 13.7863 24.6629C13.761 24.7239 13.748 24.7891 13.748 24.8551C13.748 24.921 13.761 24.9863 13.7863 25.0472C13.8115 25.1081 13.8485 25.1635 13.8951 25.2101C15.2451 26.5601 15.2251 26.6051 15.5001 26.6051C15.7751 26.6051 15.7001 26.6051 18.1051 24.2101C18.1517 24.1635 18.1887 24.1081 18.2139 24.0472C18.2392 23.9863 18.2521 23.921 18.2521 23.8551C18.2521 23.7891 18.2392 23.7239 18.2139 23.6629C18.1887 23.602 18.1517 23.5467 18.1051 23.5001C18.0585 23.4535 18.0031 23.4165 17.9422 23.3912C17.8813 23.366 17.816 23.353 17.7501 23.353C17.6842 23.353 17.6189 23.366 17.558 23.3912C17.4971 23.4165 17.4417 23.4535 17.3951 23.5001Z" fill="#096C9B"/>
<path d="M28.5 11.5C28.5 10.1739 27.9732 8.90215 27.0355 7.96447C26.0979 7.02678 24.8261 6.5 23.5 6.5H20.5V5C20.5 4.60218 20.342 4.22064 20.0607 3.93934C19.7794 3.65804 19.3978 3.5 19 3.5H13C12.6022 3.5 12.2206 3.65804 11.9393 3.93934C11.658 4.22064 11.5 4.60218 11.5 5V9C11.5 9.39782 11.658 9.77936 11.9393 10.0607C12.2206 10.342 12.6022 10.5 13 10.5H19C19.3978 10.5 19.7794 10.342 20.0607 10.0607C20.342 9.77936 20.5 9.39782 20.5 9V7.5H23.5C24.5609 7.5 25.5783 7.92143 26.3284 8.67157C27.0786 9.42172 27.5 10.4391 27.5 11.5C27.5 13.5 26 15.5 23.205 15.5L23.605 15.105C23.6516 15.0584 23.6886 15.003 23.7138 14.9421C23.7391 14.8812 23.752 14.8159 23.752 14.75C23.752 14.6841 23.7391 14.6188 23.7138 14.5579C23.6886 14.497 23.6516 14.4416 23.605 14.395C23.5584 14.3484 23.503 14.3114 23.4421 14.2862C23.3812 14.2609 23.3159 14.248 23.25 14.248C23.1841 14.248 23.1188 14.2609 23.0579 14.2862C22.997 14.3114 22.9416 14.3484 22.895 14.395C21.54 15.75 21.59 15.68 21.54 15.81C21.5017 15.9011 21.4912 16.0014 21.5099 16.0984C21.5286 16.1954 21.5756 16.2847 21.645 16.355C23 17.705 23 17.75 23.25 17.75C23.3493 17.7506 23.4465 17.7216 23.5293 17.6667C23.6121 17.6118 23.6766 17.5335 23.7147 17.4417C23.7528 17.35 23.7627 17.249 23.7431 17.1517C23.7236 17.0543 23.6755 16.9649 23.605 16.895L23.205 16.5C26.575 16.5 28.5 14.035 28.5 11.5ZM19.5 9C19.5 9.13261 19.4473 9.25979 19.3536 9.35355C19.2598 9.44732 19.1326 9.5 19 9.5H13C12.8674 9.5 12.7402 9.44732 12.6464 9.35355C12.5527 9.25979 12.5 9.13261 12.5 9V5C12.5 4.86739 12.5527 4.74021 12.6464 4.64645C12.7402 4.55268 12.8674 4.5 13 4.5H19C19.1326 4.5 19.2598 4.55268 19.3536 4.64645C19.4473 4.74021 19.5 4.86739 19.5 5V9Z" fill="#096C9B"/>
<path d="M4 7.50009H8.795L8.395 7.89509C8.32449 7.96503 8.27639 8.05438 8.25686 8.15175C8.23732 8.24913 8.24723 8.35011 8.28531 8.44183C8.3234 8.53356 8.38793 8.61186 8.47069 8.66676C8.55345 8.72166 8.65069 8.75067 8.75 8.75009C9.03 8.75009 9.02 8.68509 10.355 7.35509C10.4244 7.28478 10.4714 7.19549 10.4901 7.0985C10.5088 7.0015 10.4983 6.90115 10.46 6.81009C10.41 6.68009 10.46 6.75009 9.105 5.39509C9.05838 5.34847 9.00304 5.31149 8.94212 5.28626C8.88121 5.26103 8.81593 5.24805 8.75 5.24805C8.61685 5.24805 8.48915 5.30094 8.395 5.39509C8.34838 5.44171 8.3114 5.49706 8.28617 5.55797C8.26094 5.61888 8.24795 5.68416 8.24795 5.75009C8.24795 5.88324 8.30085 6.01094 8.395 6.10509L8.795 6.50009H4C3.86739 6.50009 3.74021 6.55277 3.64645 6.64654C3.55268 6.74031 3.5 6.86748 3.5 7.00009C3.5 7.1327 3.55268 7.25988 3.64645 7.35365C3.74021 7.44741 3.86739 7.50009 4 7.50009Z" fill="#096C9B"/>
<path d="M18 7.5H14C13.8674 7.5 13.7402 7.55268 13.6464 7.64645C13.5527 7.74021 13.5 7.86739 13.5 8C13.5 8.13261 13.5527 8.25979 13.6464 8.35355C13.7402 8.44732 13.8674 8.5 14 8.5H18C18.1326 8.5 18.2598 8.44732 18.3536 8.35355C18.4473 8.25979 18.5 8.13261 18.5 8C18.5 7.86739 18.4473 7.74021 18.3536 7.64645C18.2598 7.55268 18.1326 7.5 18 7.5Z" fill="#096C9B"/>
<path d="M18 16.5H14C13.8674 16.5 13.7402 16.5527 13.6464 16.6464C13.5527 16.7402 13.5 16.8674 13.5 17C13.5 17.1326 13.5527 17.2598 13.6464 17.3536C13.7402 17.4473 13.8674 17.5 14 17.5H18C18.1326 17.5 18.2598 17.4473 18.3536 17.3536C18.4473 17.2598 18.5 17.1326 18.5 17C18.5 16.8674 18.4473 16.7402 18.3536 16.6464C18.2598 16.5527 18.1326 16.5 18 16.5Z" fill="#096C9B"/>
</svg>
