<svg width="108" height="70" viewBox="0 0 108 70" fill="none" xmlns="http://www.w3.org/2000/svg">
<path fill-rule="evenodd" clip-rule="evenodd" d="M62.6033 66.544C91.7471 58.179 111.319 37.2751 106.319 19.8538C101.319 2.43249 73.6393 -4.90906 44.4954 3.45596C15.3516 11.821 -4.22061 32.7249 0.779741 50.1462C1.7838 53.6444 3.70228 56.7361 6.36342 59.3759L28.5086 28.3128L43.1072 40.4783L72.3044 3.7671C78.3871 13.3325 93.4999 39.397 93.4999 41C93.4999 42.1954 92.6132 43.1961 91.9941 43.8948C91.783 44.1331 91.603 44.3362 91.4999 44.5L70.9608 59.8858L67.3666 33.2506L43.1072 55.2916L28.5086 39.4764L9.03648 61.6911C20.4302 70.3415 41.1188 72.7106 62.6033 66.544Z" fill="#1E72BE"/>
</svg>
